<?xml version="1.0" standalone="no"?>
<!DOCTYPE svg PUBLIC "-//W3C//DTD SVG 20010904//EN"
 "http://www.w3.org/TR/2001/REC-SVG-20010904/DTD/svg10.dtd">
<svg version="1.0" xmlns="http://www.w3.org/2000/svg"
 width="215.000000pt" height="217.000000pt" viewBox="0 0 215.000000 217.000000"
 preserveAspectRatio="xMidYMid meet">
<metadata>
Created by potrace 1.10, written by Peter Selinger 2001-2011
</metadata>
<g transform="translate(0.000000,217.000000) scale(0.100000,-0.100000)"
fill="#000000" stroke="none">
<path d="M905 2143 c-73 -10 -197 -49 -282 -88 -291 -136 -497 -382 -581 -694
-23 -85 -26 -115 -26 -266 0 -153 3 -180 27 -269 100 -371 383 -653 762 -758
104 -29 344 -36 456 -14 232 47 388 133 559 306 156 157 243 319 285 529 27
129 17 375 -19 495 -118 393 -437 684 -823 751 -78 14 -282 18 -358 8z m367
-43 c324 -66 580 -269 724 -574 72 -153 88 -233 88 -431 0 -146 -3 -182 -23
-255 -56 -209 -191 -421 -344 -538 l-54 -42 -253 -3 -253 -2 -5 25 c-3 14 -6
46 -6 73 -1 26 -4 47 -7 47 -3 0 -6 23 -7 51 0 28 -6 57 -13 65 -7 9 -8 14 -1
14 6 0 8 13 6 33 -3 17 -5 37 -5 42 5 92 11 136 21 154 14 27 9 35 -19 26 -52
-16 -57 -174 -12 -408 20 -110 49 -154 99 -155 15 0 83 -2 152 -5 69 -3 152
-2 185 3 33 4 62 6 64 4 7 -6 -145 -77 -227 -104 -237 -79 -521 -61 -752 48
-131 61 -135 68 -44 64 48 -2 81 1 88 8 21 21 -17 30 -119 29 l-100 -2 -93 88
c-147 140 -237 294 -294 502 -30 113 -31 352 -1 473 99 398 420 703 811 774
117 21 276 20 394 -4z"/>
<path d="M1350 1974 c-8 -2 -32 -5 -53 -9 -43 -7 -100 -53 -124 -99 -9 -17
-22 -35 -29 -39 -8 -4 -14 -15 -14 -24 0 -9 -8 -26 -18 -37 -10 -12 -30 -47
-43 -78 -22 -52 -27 -58 -54 -58 -21 0 -63 -22 -135 -71 -58 -39 -128 -85
-157 -101 -54 -30 -80 -54 -70 -64 3 -4 18 3 34 13 15 11 57 34 93 51 36 18
98 56 138 86 40 30 85 57 101 61 20 4 34 19 52 53 25 48 31 51 102 53 17 0 27
5 24 12 -2 7 -12 10 -22 9 -16 -3 -17 -1 -6 12 16 19 59 20 151 5 79 -12 134
-43 204 -114 160 -163 73 -267 -104 -125 -89 71 -102 67 -47 -15 51 -79 77
-125 69 -125 -18 0 -76 44 -136 103 -36 36 -67 63 -70 60 -10 -11 67 -112 107
-140 47 -32 91 -53 112 -53 22 0 19 49 -5 88 -25 40 -25 50 -2 30 52 -46 120
-60 159 -33 27 19 41 80 24 106 -6 11 -11 24 -11 31 0 7 -9 19 -21 26 -28 18
-19 25 14 13 49 -19 40 9 -9 30 -26 12 -76 45 -110 74 -71 61 -116 75 -249 76
-63 1 -85 4 -89 15 -3 8 0 17 8 20 7 3 28 25 46 49 39 52 74 68 144 68 95 0
158 -15 151 -36 -3 -7 7 -25 21 -42 25 -29 26 -29 20 -5 -5 21 -4 21 9 -5 17
-36 19 -118 4 -146 -6 -11 -8 -25 -6 -32 2 -7 11 5 20 26 18 43 24 118 12 157
-9 31 -51 77 -86 96 -35 18 -115 33 -149 28z"/>
<path d="M626 1340 c-3 -23 -5 -44 -2 -48 2 -4 7 -70 10 -147 4 -77 9 -160 13
-185 l6 -44 -24 17 c-41 29 -50 30 -72 9 -19 -20 -20 -25 -8 -58 11 -31 11
-38 -4 -54 -26 -28 -16 -54 23 -58 18 -2 32 -9 32 -16 0 -22 28 -39 53 -32 20
5 63 73 53 84 -4 3 -10 -3 -46 -48 -17 -21 -21 -23 -30 -10 -5 8 -8 21 -5 27
6 16 -23 32 -46 26 -25 -7 -24 2 2 26 21 19 21 20 3 50 -24 41 -8 61 29 36 25
-16 26 -16 43 10 15 23 16 45 10 193 -7 194 -12 242 -24 254 -6 6 -12 -8 -16
-32z"/>
<path d="M1313 1337 c-13 -18 -23 -42 -23 -53 0 -11 -4 -24 -9 -29 -4 -6 -16
-50 -26 -100 -24 -127 -75 -260 -123 -322 -27 -37 -12 -45 24 -14 39 32 133
249 118 273 -3 5 -1 14 4 21 13 16 12 67 -2 67 -7 0 -6 3 2 8 7 5 15 26 19 48
3 22 19 54 35 72 15 18 28 39 28 47 0 26 -24 16 -47 -18z"/>
<path d="M710 768 c-12 -27 -15 -79 -14 -268 1 -164 5 -235 13 -238 6 -2 9 -8
6 -12 -3 -5 -2 -11 2 -13 5 -3 8 123 8 279 0 156 0 284 0 284 0 0 -7 -15 -15
-32z"/>
</g>
</svg>
